<?xml version="1.0" encoding="UTF-8"?>
<svg id="Layer_1" data-name="Layer 1" xmlns="http://www.w3.org/2000/svg" viewBox="0 0 310.88 210.47">
  <defs>
    <style>
      .cls-1 {
        fill: #231f20;
      }
    </style>
  </defs>
  <g>
    <path class="cls-1" d="M190.21,35.29c-24,27.77-48.08,54.9-72.22,81.3,0,0,6.71-28.44,72.22-81.3Z"/>
    <path class="cls-1" d="M110.46,97.59s26.4-47.24,62.25-67.65c-21.66,26.22-42.36,48.56-62.25,67.65Z"/>
    <path class="cls-1" d="M200.42,50.73c-19.22,24.44-39.49,47.54-60.89,69.17,0,0,17.65-39.9,60.89-69.17Z"/>
  </g>
  <g>
    <polygon class="cls-1" points="61.15 180.07 64.57 180 64.57 150.1 61.15 153.52 61.15 180.07"/>
    <polygon class="cls-1" points="125.38 153.31 128.58 150.1 110.34 150.1 106.92 150.1 106.92 180.07 110.34 180.07 125.38 180.07 128.58 176.85 110.34 176.85 110.34 166.66 125.38 166.66 128.58 163.45 110.34 163.45 110.34 153.31 125.38 153.31"/>
    <path class="cls-1" d="M87.47,152.81c3.86,0,7.3,1.79,9.54,4.58l2.3-2.29c-2.84-3.37-7.09-5.51-11.84-5.51-8.54,0-15.47,6.93-15.47,15.47s6.92,15.47,15.47,15.47c3.18,0,6.13-.96,8.59-2.6,1.2-.8,2.28-1.77,3.21-2.87v-11h-3.21s-5.95,0-5.95,0l-3.21,3.21h9.16v6.5c-2.21,2.19-5.25,3.53-8.59,3.53-6.75,0-12.25-5.5-12.25-12.25s5.49-12.25,12.25-12.25Z"/>
    <path class="cls-1" d="M159.33,159.26c0-2.53-1.03-4.82-2.68-6.48-1.66-1.66-3.95-2.68-6.48-2.68h-14.55v29.97h3.42v-11.65h8.5l8.57,11.65h4.29l-8.67-11.78c4.32-.74,7.6-4.5,7.6-9.03ZM149.46,165.2h-10.42v-11.88h11.13c3.28,0,5.94,2.66,5.94,5.94s-2.66,5.94-5.94,5.94h-.71Z"/>
    <path class="cls-1" d="M176.99,163.5c-.27-.06-.52-.12-.76-.17l-.55-.12c-3.07-.7-6.74-2.22-6.74-5.5,0-2.39,2.6-4.97,6.8-4.97,3.83,0,7.56,2.54,8.67,3.36l2.3-2.3c-.69-.55-5.57-4.28-10.97-4.28-2.78,0-5.34.88-7.2,2.48-1.79,1.53-2.82,3.62-2.82,5.71,0,5.34,5.11,7.58,8.59,8.48.23.06.44.12.65.16l.57.12c4.06.9,8.03,2.09,8.03,5.81,0,4.52-5.29,4.87-6.92,4.87-1.03,0-6.25-.17-9.81-3.5l-2.28,2.28c4.32,4.11,10.33,4.44,12.09,4.44,4.67,0,10.14-2.12,10.14-8.09s-6.17-7.95-9.79-8.78Z"/>
    <path class="cls-1" d="M207.95,149.59c-8.44,0-15.28,6.93-15.28,15.47s6.84,15.47,15.28,15.47,15.28-6.93,15.28-15.47-6.84-15.47-15.28-15.47ZM207.95,177.29c-6.64,0-12.04-5.49-12.04-12.23s5.4-12.23,12.04-12.23,12.04,5.49,12.04,12.23-5.4,12.23-12.04,12.23Z"/>
    <polygon class="cls-1" points="29.5 153.16 41.03 153.16 41.03 180 44.47 180 44.47 153.16 52.85 153.16 55.98 150.03 32.63 150.03 29.5 153.16"/>
    <polygon class="cls-1" points="248.81 153.16 251.94 150.03 230.4 150.03 230.4 152.45 230.4 153.16 230.4 163.49 230.4 166.62 230.4 180 233.84 180 233.84 166.62 246.89 166.62 250.01 163.49 233.84 163.49 233.84 153.16 248.81 153.16"/>
    <polygon class="cls-1" points="281.37 150.03 258.02 150.03 254.9 153.16 266.42 153.16 266.42 180 269.86 180 269.86 153.16 278.25 153.16 281.37 150.03"/>
  </g>
</svg>